<svg width="4300.00pt" height="4428.28pt" fill="none"
    xmlns="http://www.w3.org/2000/svg">
    <g id="frame">
        <rect id="main-rect" x="2pt" y="2pt" width="4296.00pt"
            height="4424.28pt" fill="#ffffff" />
        <rect id="map-rect" x="100.00pt" y="78.00pt" width="4100.00pt"
            height="4028.28pt" stroke="black" stroke-width="8pt" />
        <svg id="map" x="102.00pt" y="80.00pt">
            <svg xmlns="http://www.w3.org/2000/svg" width="4096pt" height="4024.278794221624pt" fill="none" viewBox="0 0 4096 4024.278794221624"><g id="SHADOWS" fill="#000000" fill-opacity="0.2" stroke="none"> <path d="M 0.0000014352396568969453 3614.7911600987736 L 0.0000014352396568969453 3660.787424893626 L 251.13938703116676 3554.522757896659 L 450.2668972631618 4024.2787934689986 L 514.3523995661911 4024.2787934689986 L 549.079672260196 3989.5515207749936 L 330.87403683515936 3474.7883545338173 Z" fill-rule="evenodd"  /><path d="M -0.0000008051344416738962 2686.2533830161447 L -0.0000008051344416738962 2913.364518925245 L 56.57426198809123 2888.6699685392587 L 19.33502360504214 2803.0603991788284 L 55.109796651078426 2787.3540459656324 L 47.36964915812735 2769.4354577525437 L 155.9490079432628 2722.095882571181 L 203.64901450960346 2831.596765472785 L 133.9823191367036 2861.9032961495045 L 196.7450552837066 3006.1343149432114 L 248.21044963601886 2983.5705933238723 L 295.4920394549622 3091.9653273602926 L 773.8993602624005 2613.5580065528547 L 726.6179855193706 2505.1632994009233 L 675.1524208986268 2527.727097192982 L 624.3240634789986 2410.921720984138 L 682.0563397977899 2353.189444665347 L 634.3565438266145 2243.68859312898 L 525.7767504089039 2291.028356501767 L 447.1890466824301 2369.6160602282407 L 438.7455471834773 2350.3136646264356 L 256.5239671105208 2429.72941510049 Z" fill-rule="evenodd"  /><path d="M -0.0000008051344416738962 1668.0641948147181 L -0.0000008051344416738962 1750.9621856346698 L 111.59664900847426 1755.389962426625 L 89.42061964614459 2302.231683237785 L 169.15500060524536 2222.4973022786844 L 191.33121815899932 1675.655572506028 Z" fill-rule="evenodd"  /><path d="M 1281.992889894965 0.0000014352399375638925 L 1218.315830193846 203.78840386489446 L 1422.1042326235006 0.0000014352399375638925 Z" fill-rule="evenodd"  /><path d="M 939.674037834942 3652.64386667899 L 859.9397151255679 3732.378184907616 L 1003.6664257096867 3696.5417074781567 L 1219.1524530934753 3786.133089243229 L 1135.1018435687874 4024.2787934689986 L 1178.538037361951 4024.2787934689986 L 1191.1440040713578 4011.6728267595918 L 1298.8869595135257 3706.398685880387 L 1083.40104862919 3616.807313076811 Z" fill-rule="evenodd"  /><path d="M 1547.8836020333495 3183.2729073768414 L 1313.5063325023254 3662.2534189359026 L 1712.1788063528504 3263.5809450853776 L 1992.1012816807133 2691.5228728376815 L 1731.4260932325788 2564.1037870673326 L 1332.7533460564139 2962.7765342434977 L 1593.4284762548218 3090.195593129357 Z" fill-rule="evenodd"  /><path d="M 2486.5444027125427 195.1611578438733 L 2240.932777264235 586.4905053762031 L 2320.66675047525 506.7565321651882 L 2566.2788464021182 115.42671415429777 L 2450.8470301108637 0.0000014352399375638925 L 2291.3746163828814 0.0000014352399375638925 Z" fill-rule="evenodd"  /><path d="M 2197.754338511112 3342.1116618861515 L 1799.0815868541988 3740.7844135430646 L 2265.2005856726737 4016.4160123786396 L 2260.54810383938 4024.2787934689986 L 2411.5125580248455 4024.2787934689986 L 2440.4374992832063 3995.353852210638 L 2663.873377656321 3617.7432876062157 Z" fill-rule="evenodd"  /><path d="M 2930.4544341886904 55.92888638301247 L 2851.6271627791084 136.5271063062919 L 2931.3496383902493 56.80463069515099 L 2986.9061305957316 -0.0000008051342774706427 L 2985.1543820880593 -0.0000008051342774706427 Z" fill-rule="evenodd"  /><path d="M 2967.752110489727 3631.4073897235003 L 2888.0176668001513 3711.141833413076 L 3115.0100897665166 3890.7669588089825 L 3020.545163975097 4024.2787957093724 L 3043.864182914287 4024.2787957093724 L 3194.744551379085 3811.032528561652 Z" fill-rule="evenodd"  /><path d="M 3120.507528691086 3198.364304784469 L 3069.402417859061 3249.4694156164937 L 3090.9507795331874 3259.423917503235 Z" fill-rule="evenodd"  /><path d="M 3534.6845876634898 110.87806917972466 L 3237.189343787645 506.63147896375403 L 3316.9229719810487 426.89785525109846 L 3614.4190537568065 31.143638932393515 L 3573.0047348571284 0.0000014352399375638925 L 3387.240684221008 0.0000014352399375638925 Z" fill-rule="evenodd"  /><path d="M 3523.7909612813614 2662.6903470108864 L 3244.720087994351 2941.761220297897 L 3454.1388283401025 3005.9131676159413 L 3275.055586708165 3417.8129311246303 L 3548.7014254807236 3514.261860525773 L 3575.2709404690554 3459.6223624003323 L 3558.115773172299 3400.558443563336 L 3650.0212507860297 3172.5410315238814 L 3554.126356937967 3138.742017510886 L 3709.7698906780242 2780.755118154004 L 3669.874070457868 2707.440479886128 Z" fill-rule="evenodd"  /><path d="M 3832.58436395332 1924.4993453396096 L 3553.5134861855613 2203.5702231073683 L 3718.998226094195 2273.0314403294437 L 3713.5589024737424 2380.98386626908 L 3892.0144719367277 2343.8199492632248 L 3897.4541360940434 2429.208550526313 L 4062.938746060979 2405.096246484056 L 4053.733779251908 2440.2693357006838 L 4096.000000402568 2451.4421978297096 L 4096.000000402568 2107.270139680586 L 4065.0307939519803 2178.57333423678 L 3772.764950643552 2051.5963594102955 L 3835.4437982228083 1925.699576474689 Z" fill-rule="evenodd"  /><path d="M 3954.861517841808 2781.968097017704 L 3707.9101934900373 3028.919425850223 L 3831.552985333302 3066.7469327025788 L 3817.745326764904 3116.5200604795355 L 3903.5210960374625 3143.729282926477 L 3711.8853116568725 3758.70253652847 L 3990.9560460406888 3479.631802144653 L 4096.000000402568 3142.5384120743815 L 4096.000000402568 2654.266410458562 L 4008.962524129665 2880.9276747679214 Z" fill-rule="evenodd"  /><path d="M 4096.000000402568 1469.8770188801236 L 4029.0469626373097 1536.8300566453813 L 4096.000000402568 1561.4675088570912 Z" fill-rule="evenodd"  /><path d="M 4096.000000402568 1844.9237307313783 L 4095.1573284928722 1846.309195996927 L 4096.000000402568 1846.6760886208053 Z" fill-rule="evenodd"  /><path d="M 3673.2069540241105 5.261433418775141 L 3593.4725148152834 84.99587710835067 L 3919.4210787979987 313.73257021364725 L 3620.042769127068 740.2348501364181 L 3699.776576550399 660.5010382323385 L 3963.0979694228163 285.3666874270957 L 3959.170705646726 283.20517449679437 L 3989.7456958709295 227.3947179642464 Z" fill-rule="evenodd"  /><path d="M 4096.000000402568 3477.68344211671 L 3665.4407256011555 3908.242716918122 L 3880.926183929923 3869.972919891975 L 3875.486766213758 3839.2244709435645 L 3919.288620425046 3831.610850818204 L 3936.576126619805 3828.606016269719 L 3941.8065532785586 3858.0273392941076 L 4096.000000402568 3830.823094958413 Z" fill-rule="evenodd"  /><path d="M 4063.069382274667 -0.0000008051342774706427 L 3956.0332917450874 164.8541454867227 L 4035.7672335908646 85.1202081216934 L 4091.03395132969 -0.0000008051342774706427 Z" fill-rule="evenodd"  /></g><g id="WATERWAYS_LINES" stroke="rgb(0%,0%,100%)" stroke-opacity="0.2" stroke-width="2" stroke-linecap="round" stroke-linejoin="round" stroke-miterlimit="10" fill="none"><path d="M 3784.186385289317 4024.2787917012033 L 4096.00000341307 3319.5633298690746" fill="none" stroke-width="1" stroke-linecap="round" stroke-linejoin="round" stroke="rgb(0%,0%,100%)" stroke-opacity="0.2" /></g><g id="GREEN_AREAS" fill="green" fill-opacity="0.1" stroke="rgb(0%,100%,0%)" stroke-opacity="1" stroke-width="1" stroke-linecap="round" stroke-linejoin="round" stroke-miterlimit="10"><path d="M 511.46479448272936 308.77352006945375 L 224.05388217263803 1170.7926104449398 L 242.115706463345 2032.6242711233392 L 457.4546891335482 2732.953721217458 L 2558.4126509816333 3900.166514080514 L 3941.106372137029 1296.5074257155125 Z" fill-rule="evenodd"  /><path d="M 2716.585096600416 1074.3741411700407 L 2458.809601944321 1709.2522135266995 L 3374.1756424550626 2060.6226429427616 L 3673.86157341272 1351.577174244339 Z" fill-rule="evenodd"  /><path d="M 2565.9530198354664 317.3028662231154 L 2405.8516434830517 640.3052979394765 L 3190.9270748953213 880.0537657953637 Z" fill-rule="evenodd"  /></g><g id="ROADS_OUTLINES" fill="rgb(223, 223, 233)" stroke="rgb(100, 100, 100)" stroke-opacity="1" stroke-width="0.4" stroke-linecap="round" stroke-linejoin="round" stroke-miterlimit="10"><path d="M 0.0000020653448721199946 548.5746415649669 L 0.0000020653448721199946 640.7848190175996 L 9.535388207969946 641.2394626141709 L 25.50122603001077 626.7268210474267 L 224.5474913356952 204.3016411204585 L 226.96517760192336 196.18865057002313 L 237.63486963140303 119.86933009910035 L 237.89725328433127 116.68371976460139 L 238.61307969331384 88.56988354488749 L 396.6294250064047 99.30842227041603 L 814.0782546203902 275.1137232705046 L 452.04467058646856 585.4394641479148 L 448.8147994212783 588.7000911687301 L 269.31294388902285 802.1726405811551 L 264.23824563386086 811.1272948729411 L 149.38216515920539 1144.2769633789949 L 147.84405872557255 1153.196045010844 L 139.47567448939665 2029.8693193078736 L 139.53279506741382 2031.9520651656171 L 164.8471583900143 2424.607221281999 L 165.13758256516024 2427.214586580909 L 240.8714663996372 2904.151782866361 L 241.27323716748208 2906.1926292477133 L 437.51186117208937 3739.503960229954 L 438.1937952017088 3741.9142443001606 L 531.8178861901939 4024.2787946066883 L 587.6307668075167 4024.2787946066883 L 588.2754389351287 4015.4066308892116 L 492.1041546152734 3725.359900529159 L 296.3914629110538 2894.2819088708193 L 221.02672999754657 2419.669441249497 L 195.86391454046978 2029.36502454053 L 204.17858804800656 1158.3188216941617 L 315.8343075650982 834.4520715735648 L 490.4856949242212 626.7479388136799 L 873.0823151422209 298.79610848474204 L 1190.618050347393 409.58985750965303 L 1191.4401376998705 409.8626051331612 L 2246.9026807011196 742.1278053103365 L 2656.9379600774955 869.8087236015849 L 1683.7822359020602 3573.043998918457 L 1679.086353541729 3576.9349955186394 L 1671.1121765704413 3582.5243211464876 L 1670.9026433424983 3583.7160074947546 L 1669.9709568891185 3584.4880000823887 L 1444.5172990263711 4011.107258898342 L 1443.2826736681307 4024.2787946066883 L 1501.3262096411845 4024.2787946066883 L 1705.5409597425455 3637.8492930926236 L 2312.7610806433117 4024.2787946066883 L 2391.711877319193 4024.2787946066883 L 2392.7870418105936 4018.1639713110276 L 2380.4030020786427 4000.4959106911374 L 1720.9332841990931 3580.8152293616517 L 2693.629910914249 878.8552377121609 L 3507.8725038709213 1008.3158195723499 L 3525.4503939140923 1005.4098572135827 L 3595.8804698765907 968.2628998396535 L 3788.5081395625893 1050.539191328 L 3789.452461725885 1050.925328765385 L 4084.0257200874094 1166.0779227519865 L 4095.9999998774797 1165.83780393685 L 4095.9999998774797 1100.1339091539912 L 3813.876213613829 989.8479812452551 L 3662.2376263813553 925.0791917266511 L 3721.592412987569 883.5604982784685 L 4084.238268858889 1022.4343255661765 L 4095.9999998774797 1022.1169138446394 L 4095.9999998774797 956.5026250642272 L 3736.93231269021 818.9990374596941 L 3198.101645408 489.25842075848595 L 2880.7309675241663 230.04646992235848 L 3080.6435944552645 19.40615663786457 L 3088.094164634479 0.00000035005859899683855 L 3021.3307118061903 0.00000035005859899683855 L 2839.8750708300536 191.1928986173466 L 2695.716546061428 31.806577985224067 L 2668.270775955663 0.00000035005859899683855 L 2592.82804217754 0.00000035005859899683855 L 2599.9300997619803 21.486231969683104 L 2633.5055558051763 60.39643545115814 L 2589.226914139727 130.93149534391614 L 2468.146505364221 0.00000035005859899683855 L 2390.960702287683 0.00000035005859899683855 L 2399.203674862569 22.32979554826943 L 2552.9919234463623 188.63024222394824 L 2243.0765653348317 681.8147031642075 L 1227.94920231821 362.2472354195165 L 1328.8126051699107 98.42322357958165 L 1363.083155200181 6.569534453513825 L 1362.8492063753117 0.00000035005859899683855 L 1325.416077056276 0.00000035005859899683855 L 1293.6230940111404 85.21319824422153 L 1192.2242686343704 350.4359786911027 L 877.1768631715028 240.5104463213588 L 414.17632619504434 45.52139993172614 L 409.413160919785 45.49330115978182 L 405.14622058436635 43.37630894356744 L 218.60444648366817 30.699228279523595 L 155.8472933489188 0.00000035005859899683855 L 65.59811086401713 0.00000035005859899683855 L 65.02797150191644 9.146860816509616 L 79.30584874761922 25.322984632190582 L 182.53853682352258 75.82183679089712 L 181.57540447929517 113.64837132089406 L 171.72012876137975 184.14225313771976 Z M 2298.730621351559 699.2155543653612 L 2592.5701347920603 231.61341893213603 L 2744.338959451632 396.81717112132674 L 2748.775868008413 400.8406768879431 L 3075.770511945981 647.0532020347246 L 3078.1938170704484 648.7136239326428 L 3538.5123529252774 934.7782192741838 L 3507.4526936108346 951.1600228743582 L 2690.8938719693624 821.3311683198463 Z M 2628.8424949253895 173.8684620959466 L 2672.546408942584 104.24891763632559 L 2800.2177877209206 245.4065061073975 L 2763.5656707356393 320.51765107668734 Z M 2806.1896751490926 361.73185080038456 L 2843.74585029437 284.7680195087851 L 3158.223546546964 541.6171284366178 L 3161.860982087418 544.1975823618554 L 3666.7118102823883 853.1440369254806 L 3603.2279335590406 897.5510341037848 L 3114.161903035954 593.6213327596365 Z" fill-rule="evenodd"  /><path d="M 3655.785872192338 2083.238157530511 L 3654.8197422275666 2093.526506523177 L 3673.439397265077 2153.9179948782667 L 3689.058335561695 2171.429955192465 L 3968.562389661412 2293.9826123646026 L 3972.8171378809866 2295.455564238701 L 4053.9904707968653 2316.470909549539 L 4066.94213171043 2316.74929395428 L 4095.9999988448076 2310.5451693470495 L 4095.9999988448076 2255.235700789676 L 4090.113747476179 2254.150297788645 L 4061.6783189968596 2260.2215278850954 L 3989.1343290921577 2241.4402746638557 L 3723.5158940987208 2124.9759730077785 L 3711.9697408373913 2087.526874302168 L 4008.994053596968 1474.895017747599 L 4084.9008943118547 1507.406936840966 L 4095.9999988448076 1507.5398537554856 L 4095.9999988448076 1450.826011175171 L 4006.4631657082873 1412.4761835054746 L 3996.2849803907966 1412.354298193016 L 3986.1236785325127 1411.756718728956 L 3984.8886947144165 1412.2178235644274 L 3977.6054535958765 1419.3286902998238 L 3969.997761500381 1426.0912729586043 L 3656.3925386137416 2072.9223281091527 Z" fill-rule="evenodd"  /></g><g id="ROADS" fill="none" stroke="rgb(50, 50, 50)" stroke-width="0.4" stroke-linecap="round" stroke-linejoin="round" stroke-miterlimit="10"><path d="M 1345.4751625104577 0.0000018553100744611584 L 1311.2046124801875 91.8536909813779 L 1199.905094521776 382.9731124598261" fill="none" stroke-width="0.4" stroke-linecap="round" stroke-linejoin="round"  /><path d="M 403.2348534035034 71.50186643300412 L 867.0525892361565 266.8350701301629 L 1199.905094521776 382.9731105870137 L 2255.3676375230248 715.238310764189 L 2684.4565727265376 848.8521967047691 L 3512.299047476958 980.4750980299345 L 3599.957878063855 934.2411743507059 L 3722.3455047991433 848.6309776855278" fill="none" stroke-width="0.4" stroke-linecap="round" stroke-linejoin="round"  /><path d="M 211.18042135945774 58.45015489294565 L 209.71595602244494 115.96617238074987 L 199.04626399296527 192.28549285167264 L -0.0000013127191983813524 614.7106727786409" fill="none" stroke-width="0.4" stroke-linecap="round" stroke-linejoin="round"  /><path d="M 403.23485480373716 71.50186813078744 L 211.18042067684377 58.450156590728966 L 91.69321809555053 0.0000016802805475890636" fill="none" stroke-width="0.4" stroke-linecap="round" stroke-linejoin="round"  /><path d="M 167.66482214464483 2030.1383996052602 L 176.03320638082073 1153.465125308231 L 290.8892868554762 820.3154568021769 L 470.39114238773163 606.8429073897523 L 867.0525892361565 266.8350729043764" fill="none" stroke-width="0.4" stroke-linecap="round" stroke-linejoin="round"  /><path d="M 561.5175433509288 4024.278792532592 L 464.95169330632956 3733.0420829893355 L 268.71306930172227 2899.7307520070945 L 192.97918546724532 2422.7935557216424 L 167.66482214464483 2030.1383996052602" fill="none" stroke-width="0.4" stroke-linecap="round" stroke-linejoin="round"  /><path d="M 1694.8950595058288 3597.659536175799 L 1469.4414016430815 4024.278794991753" fill="none" stroke-width="0.4" stroke-linecap="round" stroke-linejoin="round"  /><path d="M 1694.8950595058288 3597.6595354231736 L 2684.4565727265376 848.8521967047691" fill="none" stroke-width="0.4" stroke-linecap="round" stroke-linejoin="round"  /><path d="M 2365.2677878544655 4024.2787955168405 L 1694.8950609060628 3597.659536700887" fill="none" stroke-width="0.4" stroke-linecap="round" stroke-linejoin="round"  /><path d="M 3060.1960652735925 0.0000002625438355607912 L 2836.1335497843597 236.08613754099406 L 2768.558839571986 374.56693151984155" fill="none" stroke-width="0.4" stroke-linecap="round" stroke-linejoin="round"  /><path d="M 4096.000001487749 1135.446370573046 L 3801.426743126224 1020.2937765864444 L 3599.9578761735393 934.2411777287698 L 3095.553482844443 620.7794597646403 L 2768.558838906875 374.5669346178588 L 2590.939874420526 181.2247200168622 L 2423.3502223928176 -0.0000011201868801435921" fill="none" stroke-width="0.4" stroke-linecap="round" stroke-linejoin="round"  /><path d="M 3995.3640621379955 1438.3896990347525 L 4095.999999807468 1481.4934257924365" fill="none" stroke-width="0.4" stroke-linecap="round" stroke-linejoin="round"  /><path d="M 4096.000000192533 2281.7193467195575 L 4061.055881689527 2289.1802450233663 L 3979.8825487736476 2268.164899712528 L 3700.3784946739306 2145.6122425403905 L 3681.7588396364204 2085.2207541853004" fill="none" stroke-width="0.4" stroke-linecap="round" stroke-linejoin="round"  /><path d="M 3681.7588396364204 2085.2207541853004 L 3995.3640625230596 1438.3896990347525" fill="none" stroke-width="0.4" stroke-linecap="round" stroke-linejoin="round"  /><path d="M 2255.3676375230248 715.238310764189 L 2590.939871830093 181.2247211195463" fill="none" stroke-width="0.4" stroke-linecap="round" stroke-linejoin="round"  /><path d="M 2624.8302442731565 -0.0000008051342774706427 L 2671.067156611433 53.58341185472955 L 2836.133546983892 236.08614095406392 L 3179.028116937521 516.1446876431773 L 3722.3455052542195 848.6309813786443 L 4095.999999352392 991.7205295691297" fill="none" stroke-width="0.4" stroke-linecap="round" stroke-linejoin="round"  /><path d="M 2590.939871830093 181.2247211195463 L 2671.0671561563568 53.583412642361054" fill="none" stroke-width="0.4" stroke-linecap="round" stroke-linejoin="round"  /></g><g id="TREES" fill="none" stroke="rgb(43.1%, 75.3%, 2.7%)" stroke-opacity="1" stroke-width="2" stroke-linecap="round" stroke-linejoin="round" stroke-miterlimit="10"><circle cx="958.8017226759738" cy="2484.6771628588285" r="2.3928780282560576" fill="none" stroke="rgb(43.1%, 75.3%, 2.7%)" stroke-width="2" /><circle cx="958.8017226759738" cy="2484.6771628588285" r="37.5872401725283" fill="none" stroke="rgb(43.1%, 75.3%, 2.7%)" stroke-width="2" /><circle cx="554.7780903318446" cy="1769.1428179614904" r="2.3928780282560576" fill="none" stroke="rgb(43.1%, 75.3%, 2.7%)" stroke-width="2" /><circle cx="554.7780903318446" cy="1769.1428179614904" r="37.5872401725283" fill="none" stroke="rgb(43.1%, 75.3%, 2.7%)" stroke-width="2" /><circle cx="807.2928605250466" cy="2195.608129760059" r="2.3928780282560576" fill="none" stroke="rgb(43.1%, 75.3%, 2.7%)" stroke-width="2" /><circle cx="807.2928605250466" cy="2195.608129760059" r="37.5872401725283" fill="none" stroke="rgb(43.1%, 75.3%, 2.7%)" stroke-width="2" /><circle cx="970.0246013317795" cy="2358.591916503524" r="2.3928780282560576" fill="none" stroke="rgb(43.1%, 75.3%, 2.7%)" stroke-width="2" /><circle cx="970.0246013317795" cy="2358.591916503524" r="37.5872401725283" fill="none" stroke="rgb(43.1%, 75.3%, 2.7%)" stroke-width="2" /><circle cx="1110.3105848093978" cy="2352.8439116018462" r="2.3928780282560576" fill="none" stroke="rgb(43.1%, 75.3%, 2.7%)" stroke-width="2" /><circle cx="1110.3105848093978" cy="2352.8439116018462" r="37.5872401725283" fill="none" stroke="rgb(43.1%, 75.3%, 2.7%)" stroke-width="2" /><circle cx="1289.7012861060743" cy="2431.2763578671165" r="2.3928780282560576" fill="none" stroke="rgb(43.1%, 75.3%, 2.7%)" stroke-width="2" /><circle cx="1289.7012861060743" cy="2431.2763578671165" r="37.5872401725283" fill="none" stroke="rgb(43.1%, 75.3%, 2.7%)" stroke-width="2" /><circle cx="599.669605077588" cy="1982.3755354491839" r="2.3928780282560576" fill="none" stroke="rgb(43.1%, 75.3%, 2.7%)" stroke-width="2" /><circle cx="599.669605077588" cy="1982.3755354491839" r="37.5872401725283" fill="none" stroke="rgb(43.1%, 75.3%, 2.7%)" stroke-width="2" /><circle cx="1620.9515645412077" cy="2951.7484574020277" r="2.3928780282560576" fill="none" stroke="rgb(43.1%, 75.3%, 2.7%)" stroke-width="2" /><circle cx="1620.9515645412077" cy="2951.7484574020277" r="37.5872401725283" fill="none" stroke="rgb(43.1%, 75.3%, 2.7%)" stroke-width="2" /><circle cx="1783.6833053129346" cy="3094.89206239769" r="2.3928780282560576" fill="none" stroke="rgb(43.1%, 75.3%, 2.7%)" stroke-width="2" /><circle cx="1783.6833053129346" cy="3094.89206239769" r="37.5872401725283" fill="none" stroke="rgb(43.1%, 75.3%, 2.7%)" stroke-width="2" /><circle cx="1761.4129054425796" cy="2935.0607278132084" r="2.3928780282560576" fill="none" stroke="rgb(43.1%, 75.3%, 2.7%)" stroke-width="2" /><circle cx="1761.4129054425796" cy="2935.0607278132084" r="37.5872401725283" fill="none" stroke="rgb(43.1%, 75.3%, 2.7%)" stroke-width="2" /><circle cx="1845.409137989878" cy="3030.366195522407" r="2.3928780282560576" fill="none" stroke="rgb(43.1%, 75.3%, 2.7%)" stroke-width="2" /><circle cx="1845.409137989878" cy="3030.366195522407" r="37.5872401725283" fill="none" stroke="rgb(43.1%, 75.3%, 2.7%)" stroke-width="2" /><circle cx="1452.608384406572" cy="2574.4201648815124" r="2.3928780282560576" fill="none" stroke="rgb(43.1%, 75.3%, 2.7%)" stroke-width="2" /><circle cx="1452.608384406572" cy="2574.4201648815124" r="37.5872401725283" fill="none" stroke="rgb(43.1%, 75.3%, 2.7%)" stroke-width="2" /><circle cx="1514.3342170835153" cy="2509.8942069385225" r="2.3928780282560576" fill="none" stroke="rgb(43.1%, 75.3%, 2.7%)" stroke-width="2" /><circle cx="1514.3342170835153" cy="2509.8942069385225" r="37.5872401725283" fill="none" stroke="rgb(43.1%, 75.3%, 2.7%)" stroke-width="2" /><circle cx="1744.403229947603" cy="2841.053170263322" r="2.3928780282560576" fill="none" stroke="rgb(43.1%, 75.3%, 2.7%)" stroke-width="2" /><circle cx="1744.403229947603" cy="2841.053170263322" r="37.5872401725283" fill="none" stroke="rgb(43.1%, 75.3%, 2.7%)" stroke-width="2" /><circle cx="1688.2888365810597" cy="2754.091522821098" r="2.3928780282560576" fill="none" stroke="rgb(43.1%, 75.3%, 2.7%)" stroke-width="2" /><circle cx="1688.2888365810597" cy="2754.091522821098" r="37.5872401725283" fill="none" stroke="rgb(43.1%, 75.3%, 2.7%)" stroke-width="2" /><circle cx="1699.6870727306305" cy="2627.820949167267" r="2.3928780282560576" fill="none" stroke="rgb(43.1%, 75.3%, 2.7%)" stroke-width="2" /><circle cx="1699.6870727306305" cy="2627.820949167267" r="37.5872401725283" fill="none" stroke="rgb(43.1%, 75.3%, 2.7%)" stroke-width="2" /><circle cx="1912.7464100997415" cy="2567.3742274780425" r="2.3928780282560576" fill="none" stroke="rgb(43.1%, 75.3%, 2.7%)" stroke-width="2" /><circle cx="1912.7464100997415" cy="2567.3742274780425" r="37.5872401725283" fill="none" stroke="rgb(43.1%, 75.3%, 2.7%)" stroke-width="2" /><circle cx="1974.4722427941877" cy="2503.0336877437594" r="2.3928780282560576" fill="none" stroke="rgb(43.1%, 75.3%, 2.7%)" stroke-width="2" /><circle cx="1974.4722427941877" cy="2503.0336877437594" r="37.5872401725283" fill="none" stroke="rgb(43.1%, 75.3%, 2.7%)" stroke-width="2" /><circle cx="2255.04420966191" cy="2859.038839013796" r="2.3928780282560576" fill="none" stroke="rgb(43.1%, 75.3%, 2.7%)" stroke-width="2" /><circle cx="2255.04420966191" cy="2859.038839013796" r="37.5872401725283" fill="none" stroke="rgb(43.1%, 75.3%, 2.7%)" stroke-width="2" /><circle cx="2496.3361012168093" cy="2859.038839013796" r="2.3928780282560576" fill="none" stroke="rgb(43.1%, 75.3%, 2.7%)" stroke-width="2" /><circle cx="2496.3361012168093" cy="2859.038839013796" r="37.5872401725283" fill="none" stroke="rgb(43.1%, 75.3%, 2.7%)" stroke-width="2" /><circle cx="2602.953448586987" cy="2873.31612176398" r="2.3928780282560576" fill="none" stroke="rgb(43.1%, 75.3%, 2.7%)" stroke-width="2" /><circle cx="2602.953448586987" cy="2873.31612176398" r="37.5872401725283" fill="none" stroke="rgb(43.1%, 75.3%, 2.7%)" stroke-width="2" /><circle cx="2092.312468855177" cy="2716.265981056874" r="2.3928780282560576" fill="none" stroke="rgb(43.1%, 75.3%, 2.7%)" stroke-width="2" /><circle cx="2092.312468855177" cy="2716.265981056874" r="37.5872401725283" fill="none" stroke="rgb(43.1%, 75.3%, 2.7%)" stroke-width="2" /><circle cx="2316.770042373859" cy="2794.6983501080013" r="2.3928780282560576" fill="none" stroke="rgb(43.1%, 75.3%, 2.7%)" stroke-width="2" /><circle cx="2316.770042373859" cy="2794.6983501080013" r="37.5872401725283" fill="none" stroke="rgb(43.1%, 75.3%, 2.7%)" stroke-width="2" /><circle cx="2232.5984523327957" cy="2699.392821471129" r="2.3928780282560576" fill="none" stroke="rgb(43.1%, 75.3%, 2.7%)" stroke-width="2" /><circle cx="2232.5984523327957" cy="2699.392821471129" r="37.5872401725283" fill="none" stroke="rgb(43.1%, 75.3%, 2.7%)" stroke-width="2" /><circle cx="2333.6043603750704" cy="2716.265981056874" r="2.3928780282560576" fill="none" stroke="rgb(43.1%, 75.3%, 2.7%)" stroke-width="2" /><circle cx="2333.6043603750704" cy="2716.265981056874" r="37.5872401725283" fill="none" stroke="rgb(43.1%, 75.3%, 2.7%)" stroke-width="2" /><circle cx="2473.890343852689" cy="2699.392821471129" r="2.3928780282560576" fill="none" stroke="rgb(43.1%, 75.3%, 2.7%)" stroke-width="2" /><circle cx="2473.890343852689" cy="2699.392821471129" r="37.5872401725283" fill="none" stroke="rgb(43.1%, 75.3%, 2.7%)" stroke-width="2" /><circle cx="2558.061933893752" cy="2794.6983501080013" r="2.3928780282560576" fill="none" stroke="rgb(43.1%, 75.3%, 2.7%)" stroke-width="2" /><circle cx="2558.061933893752" cy="2794.6983501080013" r="37.5872401725283" fill="none" stroke="rgb(43.1%, 75.3%, 2.7%)" stroke-width="2" /><circle cx="1430.162627042452" cy="2414.4031852767002" r="2.3928780282560576" fill="none" stroke="rgb(43.1%, 75.3%, 2.7%)" stroke-width="2" /><circle cx="1430.162627042452" cy="2414.4031852767002" r="37.5872401725283" fill="none" stroke="rgb(43.1%, 75.3%, 2.7%)" stroke-width="2" /><circle cx="1699.6870727306305" cy="2414.4031852767002" r="2.3928780282560576" fill="none" stroke="rgb(43.1%, 75.3%, 2.7%)" stroke-width="2" /><circle cx="1699.6870727306305" cy="2414.4031852767002" r="37.5872401725283" fill="none" stroke="rgb(43.1%, 75.3%, 2.7%)" stroke-width="2" /><circle cx="1750.0146692755059" cy="2424.415837254617" r="2.3928780282560576" fill="none" stroke="rgb(43.1%, 75.3%, 2.7%)" stroke-width="2" /><circle cx="1750.0146692755059" cy="2424.415837254617" r="37.5872401725283" fill="none" stroke="rgb(43.1%, 75.3%, 2.7%)" stroke-width="2" /><circle cx="1890.125295276862" cy="2407.357244836473" r="2.3928780282560576" fill="none" stroke="rgb(43.1%, 75.3%, 2.7%)" stroke-width="2" /><circle cx="1890.125295276862" cy="2407.357244836473" r="37.5872401725283" fill="none" stroke="rgb(43.1%, 75.3%, 2.7%)" stroke-width="2" /><circle cx="1974.4722427941877" cy="2354.327267685744" r="2.3928780282560576" fill="none" stroke="rgb(43.1%, 75.3%, 2.7%)" stroke-width="2" /><circle cx="1974.4722427941877" cy="2354.327267685744" r="37.5872401725283" fill="none" stroke="rgb(43.1%, 75.3%, 2.7%)" stroke-width="2" /><circle cx="1951.8511279713082" cy="2194.310192593737" r="2.3928780282560576" fill="none" stroke="rgb(43.1%, 75.3%, 2.7%)" stroke-width="2" /><circle cx="1951.8511279713082" cy="2194.310192593737" r="37.5872401725283" fill="none" stroke="rgb(43.1%, 75.3%, 2.7%)" stroke-width="2" /><circle cx="1951.8511279713082" cy="1913.584820082779" r="2.3928780282560576" fill="none" stroke="rgb(43.1%, 75.3%, 2.7%)" stroke-width="2" /><circle cx="1951.8511279713082" cy="1913.584820082779" r="37.5872401725283" fill="none" stroke="rgb(43.1%, 75.3%, 2.7%)" stroke-width="2" /><circle cx="2036.1980755061368" cy="2289.8012711925667" r="2.3928780282560576" fill="none" stroke="rgb(43.1%, 75.3%, 2.7%)" stroke-width="2" /><circle cx="2036.1980755061368" cy="2289.8012711925667" r="37.5872401725283" fill="none" stroke="rgb(43.1%, 75.3%, 2.7%)" stroke-width="2" /><circle cx="2344.827239048379" cy="2351.9168140297197" r="2.3928780282560576" fill="none" stroke="rgb(43.1%, 75.3%, 2.7%)" stroke-width="2" /><circle cx="2344.827239048379" cy="2351.9168140297197" r="37.5872401725283" fill="none" stroke="rgb(43.1%, 75.3%, 2.7%)" stroke-width="2" /><circle cx="2114.758226271806" cy="2056.728828039478" r="2.3928780282560576" fill="none" stroke="rgb(43.1%, 75.3%, 2.7%)" stroke-width="2" /><circle cx="2114.758226271806" cy="2056.728828039478" r="37.5872401725283" fill="none" stroke="rgb(43.1%, 75.3%, 2.7%)" stroke-width="2" /><circle cx="2176.4840589487494" cy="1992.2027795013605" r="2.3928780282560576" fill="none" stroke="rgb(43.1%, 75.3%, 2.7%)" stroke-width="2" /><circle cx="2176.4840589487494" cy="1992.2027795013605" r="37.5872401725283" fill="none" stroke="rgb(43.1%, 75.3%, 2.7%)" stroke-width="2" /><circle cx="2092.312468855177" cy="1896.8970435073638" r="2.3928780282560576" fill="none" stroke="rgb(43.1%, 75.3%, 2.7%)" stroke-width="2" /><circle cx="2092.312468855177" cy="1896.8970435073638" r="37.5872401725283" fill="none" stroke="rgb(43.1%, 75.3%, 2.7%)" stroke-width="2" /><circle cx="2647.6696058389653" cy="1880.0238465003704" r="2.3928780282560576" fill="none" stroke="rgb(43.1%, 75.3%, 2.7%)" stroke-width="2" /><circle cx="2647.6696058389653" cy="1880.0238465003704" r="37.5872401725283" fill="none" stroke="rgb(43.1%, 75.3%, 2.7%)" stroke-width="2" /><circle cx="2765.685189411223" cy="3016.459757197225" r="2.3928780282560576" fill="none" stroke="rgb(43.1%, 75.3%, 2.7%)" stroke-width="2" /><circle cx="2765.685189411223" cy="3016.459757197225" r="37.5872401725283" fill="none" stroke="rgb(43.1%, 75.3%, 2.7%)" stroke-width="2" /><circle cx="2827.4110220881657" cy="2951.7484574020277" r="2.3928780282560576" fill="none" stroke="rgb(43.1%, 75.3%, 2.7%)" stroke-width="2" /><circle cx="2827.4110220881657" cy="2951.7484574020277" r="37.5872401725283" fill="none" stroke="rgb(43.1%, 75.3%, 2.7%)" stroke-width="2" /><circle cx="2743.2394320646054" cy="2856.442969345682" r="2.3928780282560576" fill="none" stroke="rgb(43.1%, 75.3%, 2.7%)" stroke-width="2" /><circle cx="2743.2394320646054" cy="2856.442969345682" r="37.5872401725283" fill="none" stroke="rgb(43.1%, 75.3%, 2.7%)" stroke-width="2" /><circle cx="3248.2689724335064" cy="2202.8394937911426" r="2.3928780282560576" fill="none" stroke="rgb(43.1%, 75.3%, 2.7%)" stroke-width="2" /><circle cx="3248.2689724335064" cy="2202.8394937911426" r="37.5872401725283" fill="none" stroke="rgb(43.1%, 75.3%, 2.7%)" stroke-width="2" /><circle cx="3309.8194476691933" cy="2138.1280512508597" r="2.3928780282560576" fill="none" stroke="rgb(43.1%, 75.3%, 2.7%)" stroke-width="2" /><circle cx="3309.8194476691933" cy="2138.1280512508597" r="37.5872401725283" fill="none" stroke="rgb(43.1%, 75.3%, 2.7%)" stroke-width="2" /><circle cx="2810.5767041044573" cy="2023.167867374226" r="2.3928780282560576" fill="none" stroke="rgb(43.1%, 75.3%, 2.7%)" stroke-width="2" /><circle cx="2810.5767041044573" cy="2023.167867374226" r="37.5872401725283" fill="none" stroke="rgb(43.1%, 75.3%, 2.7%)" stroke-width="2" /><circle cx="2872.302536868915" cy="1958.6418130513925" r="2.3928780282560576" fill="none" stroke="rgb(43.1%, 75.3%, 2.7%)" stroke-width="2" /><circle cx="2872.302536868915" cy="1958.6418130513925" r="37.5872401725283" fill="none" stroke="rgb(43.1%, 75.3%, 2.7%)" stroke-width="2" /><circle cx="3085.7125891205387" cy="2059.695542622676" r="2.3928780282560576" fill="none" stroke="rgb(43.1%, 75.3%, 2.7%)" stroke-width="2" /><circle cx="3085.7125891205387" cy="2059.695542622676" r="37.5872401725283" fill="none" stroke="rgb(43.1%, 75.3%, 2.7%)" stroke-width="2" /><circle cx="2788.130946740337" cy="1863.1506486269818" r="2.3928780282560576" fill="none" stroke="rgb(43.1%, 75.3%, 2.7%)" stroke-width="2" /><circle cx="2788.130946740337" cy="1863.1506486269818" r="37.5872401725283" fill="none" stroke="rgb(43.1%, 75.3%, 2.7%)" stroke-width="2" /><circle cx="3225.823215104392" cy="2042.8223529844126" r="2.3928780282560576" fill="none" stroke="rgb(43.1%, 75.3%, 2.7%)" stroke-width="2" /><circle cx="3225.823215104392" cy="2042.8223529844126" r="37.5872401725283" fill="none" stroke="rgb(43.1%, 75.3%, 2.7%)" stroke-width="2" /><circle cx="554.7780903318446" cy="1555.9099772619734" r="2.3928780282560576" fill="none" stroke="rgb(43.1%, 75.3%, 2.7%)" stroke-width="2" /><circle cx="554.7780903318446" cy="1555.9099772619734" r="37.5872401725283" fill="none" stroke="rgb(43.1%, 75.3%, 2.7%)" stroke-width="2" /><circle cx="537.9437723306331" cy="1154.6610626963384" r="2.3928780282560576" fill="none" stroke="rgb(43.1%, 75.3%, 2.7%)" stroke-width="2" /><circle cx="537.9437723306331" cy="1154.6610626963384" r="37.5872401725283" fill="none" stroke="rgb(43.1%, 75.3%, 2.7%)" stroke-width="2" /><circle cx="549.1666509864389" cy="1028.5753617201212" r="2.3928780282560576" fill="none" stroke="rgb(43.1%, 75.3%, 2.7%)" stroke-width="2" /><circle cx="549.1666509864389" cy="1028.5753617201212" r="37.5872401725283" fill="none" stroke="rgb(43.1%, 75.3%, 2.7%)" stroke-width="2" /><circle cx="594.2335232259474" cy="1241.8085073117995" r="2.3928780282560576" fill="none" stroke="rgb(43.1%, 75.3%, 2.7%)" stroke-width="2" /><circle cx="594.2335232259474" cy="1241.8085073117995" r="37.5872401725283" fill="none" stroke="rgb(43.1%, 75.3%, 2.7%)" stroke-width="2" /><circle cx="549.1666509864389" cy="815.3420928553587" r="2.3928780282560576" fill="none" stroke="rgb(43.1%, 75.3%, 2.7%)" stroke-width="2" /><circle cx="549.1666509864389" cy="815.3420928553587" r="37.5872401725283" fill="none" stroke="rgb(43.1%, 75.3%, 2.7%)" stroke-width="2" /><circle cx="947.578844002665" cy="843.3405552086483" r="2.3928780282560576" fill="none" stroke="rgb(43.1%, 75.3%, 2.7%)" stroke-width="2" /><circle cx="947.578844002665" cy="843.3405552086483" r="37.5872401725283" fill="none" stroke="rgb(43.1%, 75.3%, 2.7%)" stroke-width="2" /><circle cx="1183.2592961771527" cy="781.7810193312616" r="2.3928780282560576" fill="none" stroke="rgb(43.1%, 75.3%, 2.7%)" stroke-width="2" /><circle cx="1183.2592961771527" cy="781.7810193312616" r="37.5872401725283" fill="none" stroke="rgb(43.1%, 75.3%, 2.7%)" stroke-width="2" /><circle cx="947.578844002665" cy="630.1071792435023" r="2.3928780282560576" fill="none" stroke="rgb(43.1%, 75.3%, 2.7%)" stroke-width="2" /><circle cx="947.578844002665" cy="630.1071792435023" r="37.5872401725283" fill="none" stroke="rgb(43.1%, 75.3%, 2.7%)" stroke-width="2" /><circle cx="974.9346107546338" cy="434.1177850253853" r="2.3928780282560576" fill="none" stroke="rgb(43.1%, 75.3%, 2.7%)" stroke-width="2" /><circle cx="974.9346107546338" cy="434.1177850253853" r="37.5872401725283" fill="none" stroke="rgb(43.1%, 75.3%, 2.7%)" stroke-width="2" /><circle cx="2255.04420966191" cy="1405.9052354109108" r="2.3928780282560576" fill="none" stroke="rgb(43.1%, 75.3%, 2.7%)" stroke-width="2" /><circle cx="2255.04420966191" cy="1405.9052354109108" r="37.5872401725283" fill="none" stroke="rgb(43.1%, 75.3%, 2.7%)" stroke-width="2" /><circle cx="2316.770042373859" cy="1341.379073095045" r="2.3928780282560576" fill="none" stroke="rgb(43.1%, 75.3%, 2.7%)" stroke-width="2" /><circle cx="2316.770042373859" cy="1341.379073095045" r="37.5872401725283" fill="none" stroke="rgb(43.1%, 75.3%, 2.7%)" stroke-width="2" /><circle cx="2092.312468855177" cy="1262.7609749920557" r="2.3928780282560576" fill="none" stroke="rgb(43.1%, 75.3%, 2.7%)" stroke-width="2" /><circle cx="2092.312468855177" cy="1262.7609749920557" r="37.5872401725283" fill="none" stroke="rgb(43.1%, 75.3%, 2.7%)" stroke-width="2" /><circle cx="2232.5984523327957" cy="1246.0731689942277" r="2.3928780282560576" fill="none" stroke="rgb(43.1%, 75.3%, 2.7%)" stroke-width="2" /><circle cx="2232.5984523327957" cy="1246.0731689942277" r="37.5872401725283" fill="none" stroke="rgb(43.1%, 75.3%, 2.7%)" stroke-width="2" /><circle cx="2294.324285027242" cy="1099.9621241817672" r="2.3928780282560576" fill="none" stroke="rgb(43.1%, 75.3%, 2.7%)" stroke-width="2" /><circle cx="2294.324285027242" cy="1099.9621241817672" r="37.5872401725283" fill="none" stroke="rgb(43.1%, 75.3%, 2.7%)" stroke-width="2" /><circle cx="2456.8806683577122" cy="1243.1064478124276" r="2.3928780282560576" fill="none" stroke="rgb(43.1%, 75.3%, 2.7%)" stroke-width="2" /><circle cx="2456.8806683577122" cy="1243.1064478124276" r="37.5872401725283" fill="none" stroke="rgb(43.1%, 75.3%, 2.7%)" stroke-width="2" /><circle cx="2518.957216004683" cy="1178.5802569667976" r="2.3928780282560576" fill="none" stroke="rgb(43.1%, 75.3%, 2.7%)" stroke-width="2" /><circle cx="2518.957216004683" cy="1178.5802569667976" r="37.5872401725283" fill="none" stroke="rgb(43.1%, 75.3%, 2.7%)" stroke-width="2" /><circle cx="2434.610268487357" cy="1083.2743107977058" r="2.3928780282560576" fill="none" stroke="rgb(43.1%, 75.3%, 2.7%)" stroke-width="2" /><circle cx="2434.610268487357" cy="1083.2743107977058" r="37.5872401725283" fill="none" stroke="rgb(43.1%, 75.3%, 2.7%)" stroke-width="2" /></g><g id="BUILDINGS" fill="rgb(240,240,240)" stroke="rgb(0%,0%,27.843137%)" stroke-opacity="1" stroke-width="0.5" stroke-linecap="round" stroke-linejoin="round" stroke-miterlimit="10"><path d="M 1361.8333427134876 291.3899751718636 L 2240.93217357093 586.491112272543 L 2486.544269602816 195.1612924500996 L 1662.258359644019 -629.0881768175655 L 1361.8333427134876 291.3899751718636 Z" fill-rule="evenodd"  /><path d="M 439.8465393725972 -222.05117167548133 L 825.6290820022066 -101.93109783959017 L 773.7450957857559 65.08661937621218 L 1218.3155421482481 203.78869261936052 L 1367.4820024789742 -273.5944197803442 L 536.7105942715633 -532.638063264943 L 439.8465393725972 -222.05117167548133 Z" fill-rule="evenodd"  /><path d="M -221.88349443791847 2908.136876158847 L -148.4509171715407 3076.2592988350634 L -206.82040167161125 3101.6988692797995 L -130.24968008912953 3277.342464295657 L 295.49190028922425 3091.9654686263816 L 248.21052579123528 2983.5707621308097 L 196.74495880759696 3006.1345607980147 L 133.9820722754826 2861.903196487863 L 203.64887634153212 2831.5969057149528 L 155.949082575725 2722.0960533209427 L 47.36928884296178 2769.4358197479896 L 55.11004482501861 2787.3541409802483 L 19.33519950941472 2803.060323058618 L 56.57451219237044 2888.670064359009 L -2.2133915230094883 2914.330861506769 L -39.66191383987428 2828.721126157372 L -221.88349443791847 2908.136876158847 Z" fill-rule="evenodd"  /><path d="M -133.59703402163964 2293.1620983323387 L 89.42042282577944 2302.231877677753 L 111.59664272492503 1755.3901483951781 L -111.42081410499114 1746.5415700672488 L -133.59703402163964 2293.1620983323387 Z" fill-rule="evenodd"  /><path d="M 1052.8307313002692 3534.834938565394 L 1313.5059200809592 3662.253828434281 L 1593.428394061097 3090.1957593808675 L 1332.75320529791 2962.77667193899 L 1052.8307313002692 3534.834938565394 Z" fill-rule="evenodd"  /><path d="M 2945.968599097706 3516.9166536517005 L 3711.885024591438 3758.7028199620477 L 3903.5210381552974 3143.72946009106 L 3817.745093223407 3116.520183437567 L 3831.5529282737743 3066.747111179881 L 3707.910041774704 3028.9195717895923 L 3558.1159525597536 3400.5583872126763 L 3575.271141525128 3459.622378748062 L 3548.7015195764357 3514.2620928420656 L 3275.055334211003 3417.8130374023763 L 3454.138770492943 3005.913347099662 L 3244.7199390794854 2941.7613668236136 L 3090.9508670302976 3259.424166876125 L 3069.40227598037 3249.4695568300735 L 2945.968599097706 3516.9166536517005 Z" fill-rule="evenodd"  /><path d="M 3387.191691510185 2586.0494944729094 L 3620.669629440456 2617.019447239367 L 3711.675814940026 2784.2571472429845 L 3812.0964334404175 2698.6473817185483 L 3868.583031287815 2836.0211818786215 L 3943.89849517186 2761.9145488668937 L 4008.9626875719564 2880.927582124952 L 4166.706742420376 2470.1333624666713 L 4053.7335466205627 2440.26946761146 L 4062.9387699874746 2405.09643275891 L 3897.4539591219927 2429.208765182156 L 3892.0145089554094 2343.820131363632 L 3713.5587015576934 2380.9840987779044 L 3718.9981517067736 2273.031611656802 L 3553.5133408412917 2203.5703634720567 L 3387.191691510185 2586.0494944729094 Z" fill-rule="evenodd"  /><path d="M 3772.765024505886 2051.5961857200427 L 4065.0308662215475 2178.5731594963518 L 4191.184268170001 1888.1187979698825 L 4095.1570517541622 1846.3092785057047 L 4167.543580886 1727.2959114406572 L 4238.674852319402 1753.3992182838647 L 4303.9482543359045 1645.8889765553267 L 4176.330385002597 1591.0277711666176 L 4029.046811254532 1536.8302013770485 L 3772.765024505886 2051.5961857200427 Z" fill-rule="evenodd"  /><path d="M 2513.323101167914 -194.39921750851818 L 2851.6150596656257 136.53920906971643 L 3282.377670995253 -303.90096816127016 L 2944.085712497542 -634.6185740080196 L 2513.323101167914 -194.39921750851818 Z" fill-rule="evenodd"  /><path d="M 2938.018633464237 281.65650035856197 L 3237.1883926963314 506.6324320504009 L 3534.684474909662 110.87821871594451 L 3235.514715677568 -114.09795436745253 L 2938.018633464237 281.65650035856197 Z" fill-rule="evenodd"  /><path d="M 3664.3944404245344 -24.284441085769686 L 3956.0326532209665 164.8547825843557 L 4105.408323203104 -65.20931511774643 L 3813.5609007902663 -254.5698724250019 L 3664.3944404245344 -24.284441085769686 Z" fill-rule="evenodd"  /><path d="M 3959.1707975545733 283.20500772019614 L 4137.626604969792 381.42460499317485 L 4371.941381418196 13.985842407857945 L 4170.890934836013 -103.25839125783068 L 3959.1707975545733 283.20500772019614 Z" fill-rule="evenodd"  /><path d="M 3294.0934098115476 511.4991665296875 L 3620.0420005912374 740.2356141564946 L 3919.420969422235 313.73272318919135 L 3593.472378625042 84.99601108447223 L 3294.0934098115476 511.4991665296875 Z" fill-rule="evenodd"  /><path d="M 3665.440488541571 3908.242949645733 L 3717.533684356925 4202.235128452109 L 4178.213271602761 4120.828739719225 L 4126.120075769904 3825.5092167536363 L 3941.8063989552898 3858.0275578355995 L 3936.5761584051124 3828.606201739439 L 3875.48694882175 3839.2244357976956 L 3880.9263990058366 3869.973070154566 L 3665.440488541571 3908.242949645733 Z" fill-rule="evenodd"  /><path d="M 2699.1012453673834 3978.1463030858927 L 2926.0936850140342 4157.771315097867 L 3115.0099735471103 3890.767109220348 L 2888.0175338654535 3711.141967205416 L 2699.1012453673834 3978.1463030858927 Z" fill-rule="evenodd"  /><path d="M 1575.645576211498 4118.39539630106 L 2041.7646136239175 4394.0267395939645 L 2265.200489739155 4016.4161713489348 L 1799.0814523092324 3740.7845459264204 L 1575.645576211498 4118.39539630106 Z" fill-rule="evenodd"  /><path d="M 859.9394599854645 3732.3784417455026 L 931.9075698494845 4091.4074045828147 L 1111.409425399243 4091.4074045828147 L 1219.1523806313755 3786.1332624959086 L 1003.6664701671101 3696.5418902349234 L 859.9394599854645 3732.3784417455026 Z" fill-rule="evenodd"  /><path d="M -241.33998928877824 3762.9058717680837 L -23.343563322621396 4277.889962743111 L 469.34509605599317 4069.286098431939 L 251.1394604909331 3554.522929635336 L -241.33998928877824 3762.9058717680837 Z" fill-rule="evenodd"  /></g><g id="CONTOUR_LINES" fill="none" stroke="#000000" stroke-opacity="1" stroke-width="0.8" stroke-linecap="round" stroke-linejoin="round" stroke-miterlimit="10"><path d="M 512.0000000065636 328.51466191453346 L 93.09468218759002 574.8969706005887 L 436.70396049850893 1724.6909118105177 L 1536.000000002188 1923.695453080356 L 2047.9999999912486 1892.9548846653397 L 2559.999999997812 1252.4573383954098 L 3498.6640557130327 574.8969706005887 L 3072.000000004376 164.25736826037064 L 1536.000000002188 422.72113527946294 L 1023.9999999956243 0 L 512.0000000065636 328.51466191453346" fill="none" stroke-width="0.2" stroke-linecap="round" stroke-linejoin="round"  /><path d="M 4096 1401.3110874232266 L 3583.9999999934366 1341.4323565598393 L 3328.002929664353 2299.5878824111064 L 3072.000000004376 2402.250178172671 L 2826.6677379692837 2874.484853011695 L 2805.1831702650006 3449.3818236210354 L 3072.000000004376 3771.672386566762 L 4096 3919.7520043248264" fill="none" stroke-width="0.2" stroke-linecap="round" stroke-linejoin="round"  /></g><g id="CONTOUR_LINES_TEXT" fill="#000000" stroke="none" font-size="9" text-anchor="middle" dominant-baseline="middle"><text x="2560.00" y="1252.46">10.0</text><text x="2826.67" y="2874.48">10.0</text></g></svg>
        </svg>
        <svg id="footer" x="76pt" y="4170.28pt">
            <svg id="logo" x="0pt" y="20pt" width="542.052pt" height="140pt"
                viewBox="0 0 3053.5 422" fill="none" xmlns="http://www.w3.org/2000/svg">
                <style type="text/css">
                    .st0{fill:#1E293B;}
                </style>
                <path class="st0"
                    d="M518.3,162v-28.5l45.8-15l27.3-62.7h36.9v57.7h96.9V162h-96.9v79.6c0,16.9,3.5,28.8,10.6,35.6
                    c7.1,6.8,19.3,10.2,36.7,10.2c11,0,20.8-1,29.2-3.1c8.5-2.1,16.5-5,24.2-8.8v50c-7.4,3.1-17.3,6-29.6,8.7c-12.3,2.7-25,4-38.1,4
                    c-22.8,0-41.3-3.7-55.6-11c-14.2-7.3-24.8-17.5-31.5-30.6c-6.8-13.1-10.2-28.3-10.2-45.8V162L518.3,162L518.3,162z M881.4,338.2
                    c-27.2,0-51-4.8-71.5-14.4s-36.5-23.1-48.1-40.4c-11.5-17.3-17.3-37.4-17.3-60.2c0-23.1,5.8-43.3,17.3-60.6s27.6-30.8,48.1-40.4
                    s44.4-14.4,71.5-14.4c27.2,0,51,4.8,71.5,14.4s36.5,23.1,47.9,40.4c11.4,17.3,17.1,37.5,17.1,60.6c0,22.8-5.7,42.9-17.1,60.2
                    c-11.4,17.3-27.4,30.8-47.9,40.4S908.6,338.2,881.4,338.2L881.4,338.2z M881.4,289.4c14.9,0,27.6-2.7,38.3-8.1
                    c10.6-5.4,18.8-13,24.6-22.9s8.7-21.6,8.7-35.2c0-13.8-2.9-25.7-8.7-35.6c-5.8-9.9-14-17.5-24.6-22.9c-10.6-5.4-23.4-8.1-38.3-8.1
                    c-14.6,0-27.3,2.7-38.1,8.1c-10.8,5.4-19,13-24.8,22.9s-8.7,21.7-8.7,35.6c0,13.6,2.9,25.3,8.7,35.2c5.8,9.9,14,17.5,24.8,22.9
                    S866.8,289.4,881.4,289.4L881.4,289.4z M1055.2,113.6h64.2v69.6l-2.7,8.5v52.7l2.7,15.8V396h-64.2V113.6z M1097.1,223.2
                    c4.4-23.3,12-43.7,22.9-61s24.6-30.7,41.2-40.2c16.5-9.5,34.9-14.2,55.2-14.2c21.5,0,40.4,4.8,56.7,14.4c16.3,9.6,29,23.1,38.3,40.4
                    c9.2,17.3,13.8,37.5,13.8,60.6c0,22.8-4.6,42.9-13.8,60.2c-9.2,17.3-22,30.8-38.3,40.4c-16.3,9.6-35.2,14.4-56.7,14.4
                    c-20.5,0-38.9-4.7-55.2-14.2c-16.3-9.5-29.9-22.9-41-40.2C1109.2,266.5,1101.5,246.3,1097.1,223.2L1097.1,223.2z M1260.2,223.2
                    c0-12.8-2.6-24.2-7.9-34c-5.3-9.9-12.5-17.6-21.7-23.1c-9.2-5.5-19.9-8.3-31.9-8.3c-12.1,0-23.5,2.8-34.2,8.3
                    c-10.8,5.5-20.2,13.2-28.3,23.1c-8.1,9.9-14.4,21.2-19,34c4.6,12.8,11,24.1,19,33.8c8.1,9.8,17.5,17.4,28.3,22.9
                    c10.8,5.5,22.2,8.3,34.2,8.3s22.7-2.8,31.9-8.3c9.2-5.5,16.5-13.1,21.7-22.9C1257.6,247.3,1260.2,236,1260.2,223.2z M1488.3,338.2
                    c-27.2,0-51-4.8-71.5-14.4s-36.5-23.1-48.1-40.4c-11.5-17.3-17.3-37.4-17.3-60.2c0-23.1,5.8-43.3,17.3-60.6s27.6-30.8,48.1-40.4
                    s44.4-14.4,71.5-14.4c27.2,0,51,4.8,71.5,14.4s36.5,23.1,47.9,40.4s17.1,37.5,17.1,60.6c0,22.8-5.7,42.9-17.1,60.2
                    c-11.4,17.3-27.4,30.8-47.9,40.4S1515.5,338.2,1488.3,338.2L1488.3,338.2z M1488.3,289.4c14.9,0,27.6-2.7,38.3-8.1
                    c10.6-5.4,18.8-13,24.6-22.9s8.7-21.6,8.7-35.2c0-13.8-2.9-25.7-8.7-35.6c-5.8-9.9-14-17.5-24.6-22.9s-23.4-8.1-38.3-8.1
                    c-14.6,0-27.3,2.7-38.1,8.1c-10.8,5.4-19,13-24.8,22.9c-5.8,9.9-8.7,21.7-8.7,35.6c0,13.6,2.9,25.3,8.7,35.2
                    c5.8,9.9,14,17.5,24.8,22.9C1461,286.7,1473.7,289.4,1488.3,289.4L1488.3,289.4z M1778.7,337c-24.4,0-45.8-4.7-64.4-14.2
                    s-33.1-22.7-43.5-39.6s-15.6-36.4-15.6-58.5c0-22.3,4.9-41.9,14.8-58.7s23.5-29.9,41-39.4c17.4-9.5,37.7-14.2,60.8-14.2
                    c22.3,0,41.9,4.9,58.8,14.6s30.1,23.3,39.6,40.6s14.2,37.4,14.2,60.2h-215v-18.5h210l-16.5,11.5c-0.8-17.9-5-33.6-12.7-46.9
                    c-7.7-13.3-18.3-23.7-31.7-31c-13.5-7.3-29-11-46.7-11c-19.2,0-36,3.8-50.2,11.5s-25.3,18.5-33.1,32.3
                    c-7.8,13.8-11.7,30.1-11.7,48.8s4.2,35,12.7,48.8c8.5,13.8,20.3,24.6,35.6,32.3c15.3,7.7,33.1,11.5,53.7,11.5c19,0,36.8-3.3,53.5-10
                    s31.9-15.5,45.8-26.5v19.6c-13.3,11.3-29,20.2-46.9,26.7C1813,333.8,1795.6,337,1778.7,337L1778.7,337z M1894.5,332.4L2002.6,207
                    l-0.4,26.5L1900.6,117h26.9l87.7,101.2h-20.4l88.1-101.2h25.4l-101.9,116.5l0.4-26.5l107.7,125.4h-25l-95.8-109.6h20.4l-95.4,109.6
                    H1894.5L1894.5,332.4z M2146.4,117h20.8v88.5l-1.5,5.8v26.2l1.5,8.8v149.6h-20.8V117z M2153.7,224.7c6.2-22.3,15.3-41.9,27.3-58.7
                    s26.4-29.9,43.1-39.4s34.9-14.2,54.6-14.2c21,0,39.7,4.7,56.2,14.2c16.4,9.5,29.4,22.6,38.9,39.4s14.2,36.3,14.2,58.7
                    c0,22.1-4.7,41.5-14.2,58.5c-9.5,16.9-22.4,30.1-38.9,39.6c-16.4,9.5-35.1,14.2-56.2,14.2c-19.7,0-38-4.7-54.6-14
                    c-16.7-9.4-31-22.5-43.1-39.4C2168.9,266.7,2159.8,247,2153.7,224.7L2153.7,224.7z M2366.4,224.7c0-18.5-3.8-34.6-11.3-48.5
                    c-7.6-13.8-18-24.7-31.2-32.5s-28.3-11.7-45.2-11.7s-32.4,3.9-46.5,11.7c-14.1,7.8-26.7,18.7-37.7,32.5s-20.3,30-27.7,48.5
                    c7.4,18.2,16.7,34.3,27.7,48.3s23.6,24.9,37.7,32.7c14.1,7.8,29.6,11.7,46.5,11.7c16.9,0,32-3.9,45.2-11.7
                    c13.2-7.8,23.6-18.7,31.2-32.7C2362.6,259,2366.4,242.9,2366.4,224.7z M2546.8,337c-24.6,0-46.3-4.7-65-14.2s-33.3-22.7-43.8-39.6
                    s-15.8-36.4-15.8-58.5c0-22.3,5.3-41.9,15.8-58.7s25.1-29.9,43.8-39.4c18.7-9.5,40.4-14.2,65-14.2s46.3,4.7,65,14.2
                    s33.3,22.6,43.9,39.4c10.5,16.8,15.8,36.3,15.8,58.7c0,22.1-5.3,41.5-15.8,58.5c-10.5,16.9-25.1,30.1-43.9,39.6
                    C2593,332.3,2571.4,337,2546.8,337z M2546.8,317.4c21,0,39.2-3.8,54.6-11.5c15.4-7.7,27.3-18.5,35.8-32.3
                    c8.5-13.8,12.7-30.1,12.7-48.8s-4.2-35-12.7-48.8s-20.4-24.6-35.8-32.3c-15.4-7.7-33.6-11.5-54.6-11.5c-20.8,0-38.9,3.8-54.4,11.5
                    s-27.5,18.5-36,32.3s-12.7,30.1-12.7,48.8s4.2,35,12.7,48.8c8.5,13.8,20.4,24.6,36,32.3C2507.8,313.6,2526,317.4,2546.8,317.4
                    L2546.8,317.4z M2709.4,117h20.8l11.5,68.8v146.5h-20.8V182C2720.9,182,2709.4,117,2709.4,117z M2861.8,117v20.4
                    c-4.1-1.5-9.4-2.8-15.8-3.7c-6.4-0.9-12.7-1.3-18.8-1.3c-16.7,0-31.5,3.9-44.4,11.7c-13,7.8-23,18.8-30.2,32.9
                    c-7.2,14.1-10.8,30.4-10.8,48.8l-8.5-13.5c0-14.9,2.3-28.4,6.9-40.6c4.6-12.2,11.2-22.7,19.8-31.5s18.7-15.7,30.4-20.6
                    s24.5-7.3,38.6-7.3c5.9,0,11.9,0.4,18.1,1.3C2853.3,114.7,2858.2,115.8,2861.8,117z M2869.8,135.9v-11.5l48.5-5.8l7.7-56.5h13.1v55
                    h110v18.8h-110v125.4c0,20.8,4.7,35.3,14,43.7c9.4,8.3,23.3,12.5,41.7,12.5c12,0,22.6-1.6,31.7-4.8c9.1-3.2,18-7.9,26.7-14v21.4
                    c-5.6,4.1-14.3,8-26,11.5c-11.7,3.6-23.8,5.4-36.3,5.4c-18,0-32.2-3.2-42.9-9.6c-10.6-6.4-18.3-15.1-22.9-26.2
                    c-4.6-11-6.9-23.2-6.9-36.5V135.9H2869.8L2869.8,135.9z" />
                <path class="st0"
                    d="M337.5,228.1l-0.4-0.4l-94.6,81.9c-17.3,15-40,23.2-64.1,23.2s-46.8-8.3-64.1-23.2l-94.9-82.2l-0.3,0.3
                    c-25.3,21.9-25.3,57.6,0,79.5l113.6,98.4c25.3,21.9,66.5,21.9,91.9,0l113-97.9C362.8,285.7,362.8,250.1,337.5,228.1L337.5,228.1z" />
                <path class="st0"
                    d="M125.4,253.8c-4,1.3-14.8,8.7-20.9,13.6l26.3,22.8c25.9,22.5,67.7,22.7,93.9,0.7
                    C195.9,267.7,156.4,243.8,125.4,253.8L125.4,253.8z M157.9,67.2c9.6,10.5,18.6,20.5,25.2,18.9c5.3-1.2,10.4-7.7,10.1-9.9
                    c-0.2-1.2-0.4-1.5-2-3.4c-1.8-2.2-4.3-5.2-5.9-10.2C179.2,43.6,197,24.3,199,22.1c4.9-5.1,10.9-8.8,17.5-11.4
                    C190.3-5.4,153.8-3.4,130.3,17l-19.1,16.5C131.2,37.9,145.8,54,157.9,67.2z" />
                <path class="st0"
                    d="M273.9,59.2l-40.7-35.1h-0.5c-8.6,1-16.1,4.4-21.4,9.9c-3.4,3.5-12.3,15.4-9.8,23.5c0.6,2,1.5,3.1,2.9,4.7
                    c2,2.4,4.7,5.7,5.6,11.5c2,13-10.8,26.3-23.2,29.1c-1.9,0.4-3.7,0.6-5.4,0.6c-13.7,0-24.7-12-36.2-24.7
                    c-12.9-14.2-26.2-28.8-43.7-29.3c-3.4-0.1-6.8,0.5-10.2,1.6l-71,61.4C0.1,130-4.5,155.9,6.5,177.2c21.6-8.7,35-19.9,39.9-33.2
                    c1.3-3.4,2-7,2.9-10.9c2.1-9.6,4.5-20.5,14.5-29.8c3-2.8,13.9-11.9,29-11.3c16,0.6,24.2,10.8,32.1,20.4c6.9,8.5,14.2,17.3,27.8,21.6
                    c28.7,9.3,42.9,13.7,57.3,22.6l1,0.6c2.8,1.7,5.3,3.3,7,3c1.5-0.3,2.9-1.9,3.3-2.7c1.1-1.7,0.9-3.6-0.9-9.5
                    c-1.1-3.8-2.4-8.5-2.6-13.9c-0.6-17.8,12.2-31.2,35.6-55.6C260,71.8,266.9,65.3,273.9,59.2L273.9,59.2z" />
                <path class="st0"
                    d="M286.9,70.4c-7.3,6.3-14.4,12.9-21.1,19.8c-20.8,21.7-31.2,32.6-30.9,43.3c0.1,3.3,1,6.5,1.9,9.8
                    c1.9,6.6,4.2,14.8-1.2,23.2c-1.2,1.9-5.9,8.4-14.2,10.1c-8.3,1.8-15-2.3-19.5-5.1l-0.9-0.5c-12.7-7.8-26.2-12-53-20.6
                    c-19.1-6.1-28.6-17.9-36.4-27.2c-7.5-9.2-11.8-13.9-19.7-14.3c-8.7-0.3-16,6.1-16.7,6.8c-6.2,5.7-7.7,12.5-9.5,21.1
                    c-1,4.3-1.9,8.6-3.5,13.1c-6.3,17.1-21.6,31.1-45.7,41.5c1.1,1.2,2.2,2.2,3.5,3.3l26.6,23c8.4-2.7,16.1-6.6,22.7-11.7
                    c5.6-4.3,9.2-8.3,12.5-12.2c4.5-5.2,9.2-10.5,17.3-14.1c8.7-3.7,17.7-4.9,37.7,0.5c53,14.3,77.2,20.8,88.7,30.3
                    c3.4,2.9,6.4,5.7,9.2,8.4c6.3,6.1,10,9.4,13.4,9c3.4-0.4,7.7-4,11.4-9.5c1.5-2.2,5-7.2,4.6-13.5c-0.2-3.3-1.8-7-3.4-10.9
                    c-0.7-1.8-1.6-3.7-2.2-5.6c-6.6-18,2.1-41.2,14.5-53.2c9.7-9.5,21.2-11,31.3-12.2c10.3-1.3,16.8-2.4,21.6-8.6
                    c1.5-1.9,2.8-4.5,3.5-6.9L286.9,70.4L286.9,70.4z" />
                <path class="st0"
                    d="M342.6,119.8c-1,1.7-1.9,3.3-3.1,4.9c-9.3,12-21.8,13.7-32.9,15.1c-8.6,1.1-16.1,2-21.6,7.6
                    c-8.1,7.9-14.4,24.4-10.3,35.2l1.9,4.8c2,4.8,4.4,10.2,4.8,16.4c0.5,8.2-1.9,16.3-7.5,24.1c-6.8,9.9-14.8,15.6-23.2,16.8
                    c-1.1,0.1-2.1,0.2-3.1,0.2c-10.1,0-17.3-7-24.5-13.8c-2.4-2.4-5.2-5-8.3-7.6c-8.5-7.1-36.2-14.6-82.1-26.9
                    c-18.2-4.9-22.6-3-26.5-1.3c-4.7,2-7.2,5-11.3,9.7c-3.6,4-8,9.2-15,14.6c-5.6,4.4-11.8,7.9-18.5,10.8l30.1,26.1
                    c6.8-6.1,21-16.1,28.6-18.6c39.1-12.8,85.4,15.6,117.7,42l97.9-84.7C359.5,174.5,361.7,142.5,342.6,119.8z" />
            </svg>
            <svg id="info" x="710pt" y="42pt">
                <text id="gps" fill="black" x="0pt" y="30pt" font-family="Liberation Sans" font-size="40pt">Golocalisation
                    degrs dcimaux</text>
                <text id="sw_gps" x="700pt" y="30pt" fill="black" font-family="Liberation Sans"
                    font-size="39pt">SO l LAT : 18.961352 LON : 72.809210</text>
                <text id="ne_gps" x="1500.00pt" y="30pt" fill="black" font-family="Liberation Sans"
                    font-size="39pt">NE l LAT : 18.963172 LON : 72.811168</text>
                <text id="utm_zone" x="0pt" y="100pt" fill="black" font-family="Liberation Sans"
                    font-size="40pt">UTM (en mtres) Zone 43Q</text>
                <text id="sw_utm" x="700pt" y="100pt" fill="black" font-family="Liberation Sans"
                    font-size="40pt">SO l X: 2097984.7385 Y: 269321.8119</text>
                <text id="ne_utm" x="1500.00pt" y="100pt" fill="black" font-family="Liberation Sans"
                    font-size="40pt">NE l X: 2098183.5799 Y: 269530.5434</text>
                <g id="scalebar">
                    <line id="main_line" x1="2400.00pt" y1="50pt" x2="3000.00pt"
                        y2="50pt" style="stroke:rgb(0,0,0);stroke-width:5" />
                    <text id="scalebar_start" x="2391.25pt" y="40pt" fill="black"
                        font-family="Liberation Sans" font-size="30pt">0</text>
                    <text id="scalebar_end" x="2960.25pt" y="40pt" fill="black"
                        font-family="Liberation Sans" font-size="30pt">600 m</text>
                </g>
                <g id="orientation">
                    <circle cx="3300.00pt" cy="45pt" r="40pt" stroke="black" stroke-width="5" />
                    <line x1="3300.00pt" y1="45pt" x2="3300.00pt" y2="5pt"
                        style="stroke:rgb(0,0,0);stroke-width:5" />
                </g>
            </svg>
        </svg>
    </g>
</svg>